<mxfile host="Electron" agent="Mozilla/5.0 (Windows NT 10.0; Win64; x64) AppleWebKit/537.36 (KHTML, like Gecko) draw.io/26.1.1 Chrome/132.0.6834.210 Electron/34.3.3 Safari/537.36" version="26.1.1">
  <diagram name="第 1 页" id="VE51Ci2-wxRjuLrEarUk">
    <mxGraphModel dx="1562" dy="917" grid="1" gridSize="10" guides="1" tooltips="1" connect="1" arrows="1" fold="1" page="1" pageScale="1" pageWidth="827" pageHeight="1169" math="0" shadow="0">
      <root>
        <mxCell id="0" />
        <mxCell id="1" parent="0" />
        <mxCell id="tolehUT1e-5BBnuIT2Gz-16" style="edgeStyle=orthogonalEdgeStyle;rounded=0;orthogonalLoop=1;jettySize=auto;html=1;exitX=1;exitY=0.5;exitDx=0;exitDy=0;entryX=0;entryY=0.5;entryDx=0;entryDy=0;" edge="1" parent="1" source="tolehUT1e-5BBnuIT2Gz-1" target="tolehUT1e-5BBnuIT2Gz-14">
          <mxGeometry relative="1" as="geometry" />
        </mxCell>
        <mxCell id="tolehUT1e-5BBnuIT2Gz-17" value="加载" style="edgeLabel;html=1;align=center;verticalAlign=middle;resizable=0;points=[];" vertex="1" connectable="0" parent="tolehUT1e-5BBnuIT2Gz-16">
          <mxGeometry x="-0.2057" y="-3" relative="1" as="geometry">
            <mxPoint x="2" as="offset" />
          </mxGeometry>
        </mxCell>
        <mxCell id="tolehUT1e-5BBnuIT2Gz-19" style="edgeStyle=orthogonalEdgeStyle;rounded=0;orthogonalLoop=1;jettySize=auto;html=1;exitX=0.75;exitY=1;exitDx=0;exitDy=0;entryX=0;entryY=0.5;entryDx=0;entryDy=0;" edge="1" parent="1" source="tolehUT1e-5BBnuIT2Gz-1" target="tolehUT1e-5BBnuIT2Gz-18">
          <mxGeometry relative="1" as="geometry" />
        </mxCell>
        <mxCell id="tolehUT1e-5BBnuIT2Gz-1" value="栈帧对象" style="rounded=0;whiteSpace=wrap;html=1;" vertex="1" parent="1">
          <mxGeometry x="310" y="200" width="120" height="60" as="geometry" />
        </mxCell>
        <mxCell id="tolehUT1e-5BBnuIT2Gz-2" style="edgeStyle=orthogonalEdgeStyle;rounded=0;orthogonalLoop=1;jettySize=auto;html=1;exitX=1;exitY=0.5;exitDx=0;exitDy=0;entryX=0.5;entryY=1;entryDx=0;entryDy=0;" edge="1" parent="1" source="tolehUT1e-5BBnuIT2Gz-4" target="tolehUT1e-5BBnuIT2Gz-1">
          <mxGeometry relative="1" as="geometry" />
        </mxCell>
        <mxCell id="tolehUT1e-5BBnuIT2Gz-3" value="创建" style="edgeLabel;html=1;align=center;verticalAlign=middle;resizable=0;points=[];" vertex="1" connectable="0" parent="tolehUT1e-5BBnuIT2Gz-2">
          <mxGeometry x="-0.14" y="1" relative="1" as="geometry">
            <mxPoint as="offset" />
          </mxGeometry>
        </mxCell>
        <mxCell id="tolehUT1e-5BBnuIT2Gz-4" value="函数对象" style="rounded=0;whiteSpace=wrap;html=1;" vertex="1" parent="1">
          <mxGeometry x="150" y="290" width="120" height="60" as="geometry" />
        </mxCell>
        <mxCell id="tolehUT1e-5BBnuIT2Gz-5" value="代码对象" style="rounded=0;whiteSpace=wrap;html=1;" vertex="1" parent="1">
          <mxGeometry x="20" y="400" width="120" height="60" as="geometry" />
        </mxCell>
        <mxCell id="tolehUT1e-5BBnuIT2Gz-6" value="全局变量表" style="rounded=0;whiteSpace=wrap;html=1;" vertex="1" parent="1">
          <mxGeometry x="280" y="400" width="120" height="60" as="geometry" />
        </mxCell>
        <mxCell id="tolehUT1e-5BBnuIT2Gz-7" value="" style="strokeWidth=2;html=1;shape=mxgraph.flowchart.annotation_2;align=left;labelPosition=right;pointerEvents=1;direction=south;" vertex="1" parent="1">
          <mxGeometry x="80" y="350" width="260" height="50" as="geometry" />
        </mxCell>
        <mxCell id="tolehUT1e-5BBnuIT2Gz-9" style="edgeStyle=orthogonalEdgeStyle;rounded=0;orthogonalLoop=1;jettySize=auto;html=1;exitX=1;exitY=0.5;exitDx=0;exitDy=0;entryX=0.5;entryY=0;entryDx=0;entryDy=0;" edge="1" parent="1" source="tolehUT1e-5BBnuIT2Gz-8" target="tolehUT1e-5BBnuIT2Gz-1">
          <mxGeometry relative="1" as="geometry" />
        </mxCell>
        <mxCell id="tolehUT1e-5BBnuIT2Gz-10" value="创建" style="edgeLabel;html=1;align=center;verticalAlign=middle;resizable=0;points=[];" vertex="1" connectable="0" parent="tolehUT1e-5BBnuIT2Gz-9">
          <mxGeometry x="-0.365" y="4" relative="1" as="geometry">
            <mxPoint as="offset" />
          </mxGeometry>
        </mxCell>
        <mxCell id="tolehUT1e-5BBnuIT2Gz-8" value="参数列表" style="html=1;whiteSpace=wrap;" vertex="1" parent="1">
          <mxGeometry x="155" y="120" width="110" height="50" as="geometry" />
        </mxCell>
        <mxCell id="tolehUT1e-5BBnuIT2Gz-14" value="解释器" style="html=1;whiteSpace=wrap;" vertex="1" parent="1">
          <mxGeometry x="710" y="205" width="110" height="50" as="geometry" />
        </mxCell>
        <mxCell id="tolehUT1e-5BBnuIT2Gz-22" style="edgeStyle=orthogonalEdgeStyle;rounded=0;orthogonalLoop=1;jettySize=auto;html=1;exitX=1;exitY=0.5;exitDx=0;exitDy=0;entryX=0;entryY=0.5;entryDx=0;entryDy=0;" edge="1" parent="1" source="tolehUT1e-5BBnuIT2Gz-18" target="tolehUT1e-5BBnuIT2Gz-21">
          <mxGeometry relative="1" as="geometry" />
        </mxCell>
        <mxCell id="tolehUT1e-5BBnuIT2Gz-18" value="运行" style="html=1;whiteSpace=wrap;" vertex="1" parent="1">
          <mxGeometry x="460" y="300" width="110" height="50" as="geometry" />
        </mxCell>
        <mxCell id="tolehUT1e-5BBnuIT2Gz-23" style="edgeStyle=orthogonalEdgeStyle;rounded=0;orthogonalLoop=1;jettySize=auto;html=1;exitX=1;exitY=0.5;exitDx=0;exitDy=0;entryX=0.5;entryY=1;entryDx=0;entryDy=0;" edge="1" parent="1" source="tolehUT1e-5BBnuIT2Gz-21" target="tolehUT1e-5BBnuIT2Gz-14">
          <mxGeometry relative="1" as="geometry" />
        </mxCell>
        <mxCell id="tolehUT1e-5BBnuIT2Gz-24" value="卸载" style="edgeLabel;html=1;align=center;verticalAlign=middle;resizable=0;points=[];" vertex="1" connectable="0" parent="tolehUT1e-5BBnuIT2Gz-23">
          <mxGeometry x="0.1304" y="-1" relative="1" as="geometry">
            <mxPoint as="offset" />
          </mxGeometry>
        </mxCell>
        <mxCell id="tolehUT1e-5BBnuIT2Gz-25" style="edgeStyle=orthogonalEdgeStyle;rounded=0;orthogonalLoop=1;jettySize=auto;html=1;exitX=0.5;exitY=1;exitDx=0;exitDy=0;" edge="1" parent="1" source="tolehUT1e-5BBnuIT2Gz-21">
          <mxGeometry relative="1" as="geometry">
            <mxPoint x="665" y="410" as="targetPoint" />
          </mxGeometry>
        </mxCell>
        <mxCell id="tolehUT1e-5BBnuIT2Gz-27" value="返回值" style="edgeLabel;html=1;align=center;verticalAlign=middle;resizable=0;points=[];" vertex="1" connectable="0" parent="tolehUT1e-5BBnuIT2Gz-25">
          <mxGeometry x="-0.2067" y="3" relative="1" as="geometry">
            <mxPoint as="offset" />
          </mxGeometry>
        </mxCell>
        <mxCell id="tolehUT1e-5BBnuIT2Gz-21" value="得到返回值" style="html=1;whiteSpace=wrap;" vertex="1" parent="1">
          <mxGeometry x="610" y="300" width="110" height="50" as="geometry" />
        </mxCell>
        <mxCell id="tolehUT1e-5BBnuIT2Gz-26" value="持有PyFunction对象的对象" style="html=1;whiteSpace=wrap;" vertex="1" parent="1">
          <mxGeometry x="610" y="410" width="110" height="50" as="geometry" />
        </mxCell>
      </root>
    </mxGraphModel>
  </diagram>
</mxfile>
